<svg width="50" height="30" viewBox="0 0 50 30" fill="none" xmlns="http://www.w3.org/2000/svg">
<g id="Vector">
<path d="M14.4426 11.3448C14.4426 11.9373 14.5069 12.4177 14.6196 12.77C14.7483 13.1223 14.9093 13.5067 15.1346 13.923C15.215 14.0511 15.2472 14.1792 15.2472 14.2913C15.2472 14.4515 15.1507 14.6116 14.9414 14.7718L13.9276 15.4443C13.7828 15.5404 13.6379 15.5885 13.5092 15.5885C13.3483 15.5885 13.1873 15.5084 13.0264 15.3643C12.8011 15.1241 12.608 14.8678 12.4471 14.6116C12.2861 14.3394 12.1252 14.0351 11.9482 13.6668C10.693 15.1401 9.11589 15.8767 7.21695 15.8767C5.86516 15.8767 4.78695 15.4924 3.9984 14.7237C3.20986 13.9551 2.80754 12.9302 2.80754 11.6491C2.80754 10.2879 3.29033 9.18297 4.27198 8.35026C5.25364 7.51755 6.55715 7.10119 8.21469 7.10119C8.76185 7.10119 9.32509 7.14923 9.92052 7.2293C10.516 7.30937 11.1275 7.43748 11.7712 7.5816V6.4126C11.7712 5.19556 11.5137 4.34684 11.0148 3.85041C10.4999 3.35399 9.63085 3.11378 8.39171 3.11378C7.82847 3.11378 7.24913 3.17784 6.6537 3.32196C6.05827 3.46608 5.47893 3.64223 4.91569 3.86643C4.65821 3.97852 4.46509 4.04258 4.35244 4.0746C4.2398 4.10663 4.15933 4.12264 4.09496 4.12264C3.86966 4.12264 3.75701 3.96251 3.75701 3.62622V2.84155C3.75701 2.58533 3.7892 2.39317 3.86966 2.28107C3.95013 2.16897 4.09496 2.05688 4.32026 1.94478C4.8835 1.65654 5.5594 1.41633 6.34794 1.22417C7.13648 1.01599 7.9733 0.919906 8.8584 0.919906C10.7734 0.919906 12.1735 1.35228 13.0747 2.21701C13.9598 3.08175 14.4104 4.39488 14.4104 6.15638V11.3448H14.4426ZM7.90893 13.7789C8.43999 13.7789 8.98714 13.6828 9.56648 13.4907C10.1458 13.2985 10.6608 12.9462 11.0953 12.4658C11.3528 12.1615 11.5459 11.8252 11.6424 11.4409C11.739 11.0566 11.8034 10.5922 11.8034 10.0477V9.37514C11.3367 9.26304 10.8378 9.16696 10.3228 9.1029C9.80787 9.03885 9.309 9.00682 8.81013 9.00682C7.73191 9.00682 6.94337 9.215 6.41231 9.64737C5.88125 10.0797 5.62377 10.6883 5.62377 11.4889C5.62377 12.2416 5.81688 12.8021 6.2192 13.1864C6.60542 13.5867 7.16867 13.7789 7.90893 13.7789ZM20.8314 15.5084C20.5417 15.5084 20.3486 15.4603 20.2199 15.3482C20.0911 15.2522 19.9785 15.028 19.8819 14.7237L16.1001 2.34512C16.0036 2.02485 15.9553 1.81667 15.9553 1.70458C15.9553 1.44836 16.084 1.30423 16.3415 1.30423H17.9186C18.2244 1.30423 18.4336 1.35228 18.5462 1.46437C18.675 1.56045 18.7715 1.78465 18.8681 2.08891L21.5716 12.69L24.0821 2.08891C24.1626 1.76863 24.2591 1.56045 24.3879 1.46437C24.5166 1.36829 24.7419 1.30423 25.0316 1.30423H26.319C26.6248 1.30423 26.834 1.35228 26.9627 1.46437C27.0914 1.56045 27.2041 1.78465 27.2685 2.08891L29.8111 12.8181L32.5951 2.08891C32.6917 1.76863 32.8043 1.56045 32.917 1.46437C33.0457 1.36829 33.2549 1.30423 33.5446 1.30423H35.0412C35.2987 1.30423 35.4436 1.43234 35.4436 1.70458C35.4436 1.78465 35.4275 1.86471 35.4114 1.9608C35.3953 2.05688 35.3631 2.18499 35.2987 2.36114L31.4204 14.7397C31.3238 15.06 31.2112 15.2682 31.0824 15.3643C30.9537 15.4603 30.7445 15.5244 30.4709 15.5244H29.0869C28.7812 15.5244 28.572 15.4764 28.4432 15.3643C28.3145 15.2522 28.2018 15.044 28.1375 14.7237L25.6431 4.39488L23.1648 14.7077C23.0844 15.028 22.9878 15.2361 22.8591 15.3482C22.7303 15.4603 22.505 15.5084 22.2153 15.5084H20.8314ZM41.5105 15.9408C40.6737 15.9408 39.8369 15.8447 39.0322 15.6525C38.2276 15.4603 37.6 15.2522 37.1816 15.012C36.9241 14.8678 36.7471 14.7077 36.6827 14.5636C36.6183 14.4195 36.5861 14.2593 36.5861 14.1152V13.2985C36.5861 12.9622 36.7149 12.8021 36.9563 12.8021C37.0528 12.8021 37.1494 12.8181 37.2459 12.8501C37.3425 12.8821 37.4873 12.9462 37.6483 13.0102C38.1954 13.2505 38.7908 13.4426 39.4185 13.5707C40.0622 13.6988 40.6898 13.7629 41.3335 13.7629C42.3473 13.7629 43.1359 13.5867 43.683 13.2344C44.2302 12.8821 44.5198 12.3697 44.5198 11.7131C44.5198 11.2648 44.375 10.8964 44.0853 10.5922C43.7957 10.2879 43.2485 10.0157 42.46 9.75947L40.1265 9.03885C38.9518 8.67053 38.0828 8.12607 37.5517 7.40545C37.0206 6.70085 36.7471 5.91618 36.7471 5.08347C36.7471 4.41089 36.8919 3.81838 37.1816 3.30595C37.4712 2.79351 37.8575 2.34512 38.3402 1.99282C38.823 1.62451 39.3702 1.35228 40.0139 1.16011C40.6576 0.967947 41.3335 0.887878 42.0416 0.887878C42.3956 0.887878 42.7657 0.903892 43.1198 0.951933C43.4899 0.999974 43.8279 1.06403 44.1658 1.12808C44.4877 1.20815 44.7934 1.28822 45.0831 1.3843C45.3728 1.48039 45.5981 1.57647 45.759 1.67255C45.9843 1.80066 46.1452 1.92877 46.2418 2.07289C46.3383 2.201 46.3866 2.37715 46.3866 2.60134V3.35399C46.3866 3.69027 46.2579 3.86643 46.0165 3.86643C45.8877 3.86643 45.6785 3.80237 45.4049 3.67426C44.4877 3.25791 43.4577 3.04973 42.3151 3.04973C41.3979 3.04973 40.6737 3.19385 40.1748 3.49811C39.6759 3.80237 39.4185 4.26677 39.4185 4.92333C39.4185 5.37171 39.5794 5.75604 39.9012 6.0603C40.2231 6.36456 40.8185 6.66882 41.6714 6.94106L43.9566 7.66167C45.1153 8.02999 45.9521 8.54242 46.451 9.19899C46.9498 9.85555 47.1912 10.6082 47.1912 11.4409C47.1912 12.1295 47.0464 12.754 46.7728 13.2985C46.4832 13.843 46.0969 14.3234 45.5981 14.7077C45.0992 15.108 44.5037 15.3963 43.8118 15.6045C43.0876 15.8287 42.3312 15.9408 41.5105 15.9408Z" fill="white"/>
<path fill-rule="evenodd" clip-rule="evenodd" d="M44.552 23.7234C39.2575 27.6147 31.5652 29.6805 24.9511 29.6805C15.6817 29.6805 7.32958 26.2696 1.02124 20.6007C0.522368 20.1524 0.972964 19.5438 1.56839 19.8961C8.3917 23.8355 16.8082 26.2215 25.5143 26.2215C31.3882 26.2215 37.8414 25.0045 43.7796 22.5064C44.6647 22.106 45.421 23.0829 44.552 23.7234Z" fill="white"/>
<path fill-rule="evenodd" clip-rule="evenodd" d="M46.7567 21.2253C46.0808 20.3605 42.283 20.8089 40.561 21.0171C40.0461 21.0811 39.9656 20.6328 40.4323 20.2965C43.4577 18.1827 48.4304 18.7912 49.0097 19.4958C49.589 20.2164 48.8488 25.1646 46.0165 27.5347C45.582 27.903 45.1636 27.7108 45.3567 27.2304C46.0004 25.645 47.4326 22.074 46.7567 21.2253Z" fill="white"/>
</g>
</svg>
