<svg width="36" height="38" viewBox="0 0 36 38" fill="none" xmlns="http://www.w3.org/2000/svg">
<g id="Microsoft_Azure 1">
<path id="Vector" d="M12.5017 3.30635H22.2659L12.1297 34.1732C12.0255 34.4904 11.8271 34.766 11.5626 34.9613C11.298 35.1565 10.9805 35.2616 10.6548 35.2616H3.05578C2.80899 35.2617 2.56575 35.2013 2.34617 35.0855C2.12658 34.9698 1.93698 34.8019 1.79303 34.5959C1.64908 34.3899 1.55494 34.1516 1.51837 33.9008C1.48181 33.6499 1.50389 33.3937 1.58278 33.1534L11.0264 4.39477C11.1305 4.07746 11.3289 3.80172 11.5936 3.60639C11.8582 3.41106 12.1758 3.30637 12.5017 3.30635Z" fill="white"/>
<path id="Vector_2" d="M26.6907 24.0098H11.2069C11.063 24.0096 10.9223 24.054 10.8033 24.1372C10.6842 24.2203 10.5923 24.3384 10.5395 24.4761C10.4867 24.6137 10.4754 24.7645 10.5072 24.9088C10.5389 25.0531 10.6122 25.1842 10.7175 25.2851L20.667 34.8296C20.9567 35.1073 21.3381 35.2617 21.7343 35.2616H30.5018L26.6907 24.0098Z" fill="white"/>
<path id="Vector_3" d="M12.5019 3.30635C12.1725 3.30505 11.8513 3.41203 11.5853 3.61166C11.3193 3.81129 11.1223 4.09311 11.0232 4.41596L1.59461 33.1272C1.51042 33.3684 1.48399 33.6269 1.51755 33.8808C1.55112 34.1347 1.64369 34.3766 1.78745 34.586C1.9312 34.7954 2.12191 34.9661 2.34343 35.0837C2.56496 35.2013 2.81078 35.2623 3.06011 35.2616H10.8552C11.1456 35.2083 11.4169 35.0768 11.6416 34.8804C11.8662 34.684 12.0362 34.4299 12.134 34.1439L14.0142 28.4486L20.7305 34.887C21.0119 35.1263 21.365 35.2586 21.7302 35.2616H30.4651L26.6341 24.0098L15.4662 24.0125L22.3014 3.30635H12.5019Z" fill="url(#paint0_linear_106_2620)"/>
<path id="Vector_4" d="M24.973 4.39321C24.8691 4.07641 24.671 3.80113 24.4067 3.60614C24.1425 3.41116 23.8253 3.3063 23.5 3.30634H12.6179C12.9432 3.30635 13.2603 3.41124 13.5246 3.60621C13.7888 3.80119 13.9869 4.07644 14.0909 4.39321L23.5349 33.153C23.6139 33.3934 23.636 33.6496 23.5995 33.9005C23.5629 34.1514 23.4688 34.3898 23.3249 34.5959C23.1809 34.802 22.9913 34.9699 22.7717 35.0857C22.5521 35.2016 22.3088 35.262 22.0619 35.262H32.9444C33.1912 35.2619 33.4345 35.2015 33.654 35.0856C33.8736 34.9697 34.0632 34.8018 34.2071 34.5957C34.351 34.3896 34.4451 34.1513 34.4816 33.9004C34.5181 33.6496 34.496 33.3933 34.417 33.153L24.973 4.39321Z" fill="white"/>
</g>
<defs>
<linearGradient id="paint0_linear_106_2620" x1="19.2282" y1="20.023" x2="16.8697" y2="20.799" gradientUnits="userSpaceOnUse">
<stop stop-opacity="0.3"/>
<stop offset="0.071" stop-opacity="0.2"/>
<stop offset="0.321" stop-opacity="0.1"/>
<stop offset="0.623" stop-opacity="0.05"/>
<stop offset="1" stop-opacity="0"/>
</linearGradient>
</defs>
</svg>
