<svg width="13" height="13" viewBox="0 0 13 13" fill="none" xmlns="http://www.w3.org/2000/svg">
<path id="Vector" d="M6.33328 9.18652H7.23328V5.58652H6.33328V9.18652ZM6.73828 4.47652C6.87828 4.47652 6.99578 4.43152 7.09078 4.34152C7.18578 4.25152 7.23328 4.13652 7.23328 3.99652C7.23328 3.85652 7.18578 3.73652 7.09078 3.63652C6.99578 3.53652 6.87828 3.48652 6.73828 3.48652C6.59828 3.48652 6.48078 3.53652 6.38578 3.63652C6.29078 3.73652 6.24328 3.85652 6.24328 3.99652C6.24328 4.13652 6.29078 4.25152 6.38578 4.34152C6.48078 4.43152 6.59828 4.47652 6.73828 4.47652ZM6.73828 12.1865C5.91828 12.1865 5.14328 12.029 4.41328 11.714C3.68328 11.399 3.04578 10.969 2.50078 10.424C1.95578 9.87902 1.52578 9.24152 1.21078 8.51152C0.895781 7.78152 0.738281 7.00152 0.738281 6.17152C0.738281 5.35152 0.895781 4.57652 1.21078 3.84652C1.52578 3.11652 1.95578 2.48152 2.50078 1.94152C3.04578 1.40152 3.68328 0.974023 4.41328 0.659023C5.14328 0.344023 5.92328 0.186523 6.75328 0.186523C7.57328 0.186523 8.34828 0.344023 9.07828 0.659023C9.80828 0.974023 10.4433 1.40152 10.9833 1.94152C11.5233 2.48152 11.9508 3.11652 12.2658 3.84652C12.5808 4.57652 12.7383 5.35652 12.7383 6.18652C12.7383 7.00652 12.5808 7.78152 12.2658 8.51152C11.9508 9.24152 11.5233 9.87902 10.9833 10.424C10.4433 10.969 9.80828 11.399 9.07828 11.714C8.34828 12.029 7.56828 12.1865 6.73828 12.1865ZM6.75328 11.2865C8.16328 11.2865 9.36328 10.789 10.3533 9.79402C11.3433 8.79902 11.8383 7.59152 11.8383 6.17152C11.8383 4.76152 11.3433 3.56152 10.3533 2.57152C9.36328 1.58152 8.15828 1.08652 6.73828 1.08652C5.32828 1.08652 4.12578 1.58152 3.13078 2.57152C2.13578 3.56152 1.63828 4.76652 1.63828 6.18652C1.63828 7.59652 2.13578 8.79902 3.13078 9.79402C4.12578 10.789 5.33328 11.2865 6.75328 11.2865Z" fill="#666666"/>
</svg>
