<svg width="33" height="33" viewBox="0 0 33 33" fill="none" xmlns="http://www.w3.org/2000/svg">
<g id="More">
<path id="Vector" d="M16.4717 26.7826C16.0304 26.7826 15.6542 26.6254 15.3431 26.3112C15.032 25.9969 14.8765 25.6191 14.8765 25.1778C14.8765 24.7365 15.0336 24.3603 15.3479 24.0492C15.6621 23.7381 16.0399 23.5826 16.4812 23.5826C16.9225 23.5826 17.2987 23.7397 17.6098 24.054C17.9209 24.3682 18.0765 24.746 18.0765 25.1873C18.0765 25.6286 17.9193 26.0048 17.6051 26.3159C17.2908 26.627 16.913 26.7826 16.4717 26.7826ZM16.4717 17.7159C16.0304 17.7159 15.6542 17.5588 15.3431 17.2445C15.032 16.9302 14.8765 16.5525 14.8765 16.1112C14.8765 15.6699 15.0336 15.2937 15.3479 14.9826C15.6621 14.6714 16.0399 14.5159 16.4812 14.5159C16.9225 14.5159 17.2987 14.673 17.6098 14.9873C17.9209 15.3015 18.0765 15.6793 18.0765 16.1206C18.0765 16.5619 17.9193 16.9381 17.6051 17.2492C17.2908 17.5603 16.913 17.7159 16.4717 17.7159ZM16.4717 8.64922C16.0304 8.64922 15.6542 8.49208 15.3431 8.17782C15.032 7.86357 14.8765 7.4858 14.8765 7.04448C14.8765 6.6032 15.0336 6.227 15.3479 5.91589C15.6621 5.60477 16.0399 5.44922 16.4812 5.44922C16.9225 5.44922 17.2987 5.60635 17.6098 5.92062C17.9209 6.23486 18.0765 6.61264 18.0765 7.05395C18.0765 7.49524 17.9193 7.87144 17.6051 8.18255C17.2908 8.49366 16.913 8.64922 16.4717 8.64922Z" fill="#A4A4A4"/>
</g>
</svg>
