<svg width="24" height="25" viewBox="0 0 24 25" fill="none" xmlns="http://www.w3.org/2000/svg">
<g id="Dash">
<path id="Vector" d="M4.5 11.5342C4.0875 11.5342 3.73438 11.3873 3.44063 11.0936C3.14688 10.7998 3 10.4467 3 10.0342V4.78418C3 4.37168 3.14688 4.01855 3.44063 3.7248C3.73438 3.43105 4.0875 3.28418 4.5 3.28418H9.75C10.1625 3.28418 10.5156 3.43105 10.8094 3.7248C11.1031 4.01855 11.25 4.37168 11.25 4.78418V10.0342C11.25 10.4467 11.1031 10.7998 10.8094 11.0936C10.5156 11.3873 10.1625 11.5342 9.75 11.5342H4.5ZM4.5 21.2842C4.0875 21.2842 3.73438 21.1373 3.44063 20.8436C3.14688 20.5498 3 20.1967 3 19.7842V14.5342C3 14.1217 3.14688 13.7686 3.44063 13.4748C3.73438 13.1811 4.0875 13.0342 4.5 13.0342H9.75C10.1625 13.0342 10.5156 13.1811 10.8094 13.4748C11.1031 13.7686 11.25 14.1217 11.25 14.5342V19.7842C11.25 20.1967 11.1031 20.5498 10.8094 20.8436C10.5156 21.1373 10.1625 21.2842 9.75 21.2842H4.5ZM14.25 11.5342C13.8375 11.5342 13.4844 11.3873 13.1906 11.0936C12.8969 10.7998 12.75 10.4467 12.75 10.0342V4.78418C12.75 4.37168 12.8969 4.01855 13.1906 3.7248C13.4844 3.43105 13.8375 3.28418 14.25 3.28418H19.5C19.9125 3.28418 20.2656 3.43105 20.5594 3.7248C20.8531 4.01855 21 4.37168 21 4.78418V10.0342C21 10.4467 20.8531 10.7998 20.5594 11.0936C20.2656 11.3873 19.9125 11.5342 19.5 11.5342H14.25ZM14.25 21.2842C13.8375 21.2842 13.4844 21.1373 13.1906 20.8436C12.8969 20.5498 12.75 20.1967 12.75 19.7842V14.5342C12.75 14.1217 12.8969 13.7686 13.1906 13.4748C13.4844 13.1811 13.8375 13.0342 14.25 13.0342H19.5C19.9125 13.0342 20.2656 13.1811 20.5594 13.4748C20.8531 13.7686 21 14.1217 21 14.5342V19.7842C21 20.1967 20.8531 20.5498 20.5594 20.8436C20.2656 21.1373 19.9125 21.2842 19.5 21.2842H14.25ZM4.5 10.0342H9.75V4.78418H4.5V10.0342ZM14.25 10.0342H19.5V4.78418H14.25V10.0342ZM14.25 19.7842H19.5V14.5342H14.25V19.7842ZM4.5 19.7842H9.75V14.5342H4.5V19.7842Z" fill="black" fill-opacity="0.6"/>
</g>
</svg>
