<svg width="24" height="25" viewBox="0 0 24 25" fill="none" xmlns="http://www.w3.org/2000/svg">
<g id="Dash">
<path id="Vector" d="M4.5 11.9507C4.0875 11.9507 3.73438 11.8038 3.44063 11.5101C3.14688 11.2163 3 10.8632 3 10.4507V5.20068C3 4.78818 3.14688 4.43506 3.44063 4.14131C3.73438 3.84756 4.0875 3.70068 4.5 3.70068H9.75C10.1625 3.70068 10.5156 3.84756 10.8094 4.14131C11.1031 4.43506 11.25 4.78818 11.25 5.20068V10.4507C11.25 10.8632 11.1031 11.2163 10.8094 11.5101C10.5156 11.8038 10.1625 11.9507 9.75 11.9507H4.5ZM4.5 21.7007C4.0875 21.7007 3.73438 21.5538 3.44063 21.2601C3.14688 20.9663 3 20.6132 3 20.2007V14.9507C3 14.5382 3.14688 14.1851 3.44063 13.8913C3.73438 13.5976 4.0875 13.4507 4.5 13.4507H9.75C10.1625 13.4507 10.5156 13.5976 10.8094 13.8913C11.1031 14.1851 11.25 14.5382 11.25 14.9507V20.2007C11.25 20.6132 11.1031 20.9663 10.8094 21.2601C10.5156 21.5538 10.1625 21.7007 9.75 21.7007H4.5ZM14.25 11.9507C13.8375 11.9507 13.4844 11.8038 13.1906 11.5101C12.8969 11.2163 12.75 10.8632 12.75 10.4507V5.20068C12.75 4.78818 12.8969 4.43506 13.1906 4.14131C13.4844 3.84756 13.8375 3.70068 14.25 3.70068H19.5C19.9125 3.70068 20.2656 3.84756 20.5594 4.14131C20.8531 4.43506 21 4.78818 21 5.20068V10.4507C21 10.8632 20.8531 11.2163 20.5594 11.5101C20.2656 11.8038 19.9125 11.9507 19.5 11.9507H14.25ZM14.25 21.7007C13.8375 21.7007 13.4844 21.5538 13.1906 21.2601C12.8969 20.9663 12.75 20.6132 12.75 20.2007V14.9507C12.75 14.5382 12.8969 14.1851 13.1906 13.8913C13.4844 13.5976 13.8375 13.4507 14.25 13.4507H19.5C19.9125 13.4507 20.2656 13.5976 20.5594 13.8913C20.8531 14.1851 21 14.5382 21 14.9507V20.2007C21 20.6132 20.8531 20.9663 20.5594 21.2601C20.2656 21.5538 19.9125 21.7007 19.5 21.7007H14.25ZM4.5 10.4507H9.75V5.20068H4.5V10.4507ZM14.25 10.4507H19.5V5.20068H14.25V10.4507ZM14.25 20.2007H19.5V14.9507H14.25V20.2007ZM4.5 20.2007H9.75V14.9507H4.5V20.2007Z" fill="#2244C0"/>
</g>
</svg>
