<svg width="24" height="24" viewBox="0 0 24 24" fill="none" xmlns="http://www.w3.org/2000/svg">
<g id="help" opacity="1">
<path id="Vector" d="M12.1007 17.825C12.3669 17.825 12.5917 17.7331 12.775 17.5493C12.9583 17.3655 13.05 17.1405 13.05 16.8743C13.05 16.6081 12.9581 16.3833 12.7743 16.2C12.5905 16.0167 12.3655 15.925 12.0993 15.925C11.8331 15.925 11.6083 16.0169 11.425 16.2007C11.2417 16.3845 11.15 16.6095 11.15 16.8757C11.15 17.1419 11.2419 17.3667 11.4257 17.55C11.6095 17.7333 11.8345 17.825 12.1007 17.825ZM12.0066 22C10.6278 22 9.33192 21.7375 8.11915 21.2125C6.90638 20.6875 5.84583 19.9708 4.9375 19.0625C4.02917 18.1542 3.3125 17.093 2.7875 15.879C2.2625 14.665 2 13.3678 2 11.9875C2 10.6072 2.2625 9.31003 2.7875 8.09602C3.3125 6.88201 4.02917 5.825 4.9375 4.925C5.84583 4.025 6.90701 3.3125 8.12103 2.7875C9.33503 2.2625 10.6322 2 12.0125 2C13.3928 2 14.69 2.2625 15.904 2.7875C17.118 3.3125 18.175 4.025 19.075 4.925C19.975 5.825 20.6875 6.88333 21.2125 8.1C21.7375 9.31667 22 10.6145 22 11.9934C22 13.3723 21.7375 14.6681 21.2125 15.8809C20.6875 17.0936 19.975 18.1526 19.075 19.0579C18.175 19.9632 17.1167 20.6798 15.9 21.2079C14.6833 21.736 13.3855 22 12.0066 22ZM12.0125 20.5C14.3708 20.5 16.375 19.6708 18.025 18.0125C19.675 16.3542 20.5 14.3458 20.5 11.9875C20.5 9.62917 19.6766 7.625 18.0297 5.975C16.3828 4.325 14.3729 3.5 12 3.5C9.65 3.5 7.64583 4.32343 5.9875 5.9703C4.32917 7.61718 3.5 9.62708 3.5 12C3.5 14.35 4.32917 16.3542 5.9875 18.0125C7.64583 19.6708 9.65417 20.5 12.0125 20.5ZM12.0692 7.5C12.5731 7.5 13.0167 7.65417 13.4 7.9625C13.7833 8.27083 13.975 8.66413 13.975 9.1424C13.975 9.5808 13.8446 9.96191 13.5838 10.2857C13.323 10.6095 13.0284 10.9143 12.7 11.2C12.3167 11.5167 11.9833 11.8699 11.7 12.2596C11.4167 12.6494 11.275 13.0878 11.275 13.575C11.275 13.7583 11.345 13.9042 11.485 14.0125C11.625 14.1208 11.7883 14.175 11.975 14.175C12.175 14.175 12.3406 14.1083 12.4719 13.975C12.6031 13.8417 12.6875 13.675 12.725 13.475C12.775 13.125 12.9083 12.8083 13.125 12.525C13.3417 12.2417 13.5936 11.9851 13.8808 11.7554C14.2936 11.4185 14.6333 11.025 14.9 10.575C15.1667 10.125 15.3 9.63655 15.3 9.10965C15.3 8.26988 14.9875 7.57083 14.3625 7.0125C13.7375 6.45417 12.9962 6.175 12.1387 6.175C11.5462 6.175 10.975 6.3 10.425 6.55C9.875 6.8 9.425 7.16667 9.075 7.65C8.95833 7.81667 8.90417 7.99583 8.9125 8.1875C8.92083 8.37917 8.99974 8.53333 9.14922 8.65C9.33949 8.78333 9.53654 8.825 9.74038 8.775C9.94422 8.725 10.1141 8.60833 10.25 8.425C10.4625 8.12662 10.7281 7.89785 11.0469 7.7387C11.3656 7.57957 11.7064 7.5 12.0692 7.5Z" fill="#2244C0"/>
</g>
</svg>
