<svg width="24" height="25" viewBox="0 0 24 25" fill="none" xmlns="http://www.w3.org/2000/svg">
<g id="list" opacity="0.6">
<path id="Vector" d="M10.1749 19.7507C9.9624 19.7507 9.78428 19.6784 9.64053 19.5338C9.49678 19.3892 9.4249 19.21 9.4249 18.9963C9.4249 18.7826 9.49678 18.6049 9.64053 18.4632C9.78428 18.3215 9.9624 18.2507 10.1749 18.2507H20.2499C20.4624 18.2507 20.6405 18.323 20.7843 18.4676C20.928 18.6122 20.9999 18.7913 20.9999 19.0051C20.9999 19.2188 20.928 19.3965 20.7843 19.5382C20.6405 19.6799 20.4624 19.7507 20.2499 19.7507H10.1749ZM10.1749 13.4507C9.9624 13.4507 9.78428 13.3784 9.64053 13.2338C9.49678 13.0892 9.4249 12.91 9.4249 12.6963C9.4249 12.4826 9.49678 12.3049 9.64053 12.1632C9.78428 12.0215 9.9624 11.9507 10.1749 11.9507H20.2499C20.4624 11.9507 20.6405 12.023 20.7843 12.1676C20.928 12.3122 20.9999 12.4913 20.9999 12.7051C20.9999 12.9188 20.928 13.0965 20.7843 13.2382C20.6405 13.3799 20.4624 13.4507 20.2499 13.4507H10.1749ZM10.1749 7.12568C9.9624 7.12568 9.78428 7.05339 9.64053 6.90881C9.49678 6.76421 9.4249 6.58504 9.4249 6.37131C9.4249 6.15756 9.49678 5.97985 9.64053 5.83818C9.78428 5.69652 9.9624 5.62568 10.1749 5.62568H20.2499C20.4624 5.62568 20.6405 5.69797 20.7843 5.84256C20.928 5.98716 20.9999 6.16632 20.9999 6.38006C20.9999 6.59381 20.928 6.77152 20.7843 6.91318C20.6405 7.05485 20.4624 7.12568 20.2499 7.12568H10.1749ZM4.7249 20.6757C4.2574 20.6757 3.85719 20.5174 3.52428 20.2007C3.19136 19.884 3.0249 19.4882 3.0249 19.0132C3.0249 18.5382 3.1874 18.1382 3.5124 17.8132C3.8374 17.4882 4.2374 17.3257 4.7124 17.3257C5.1874 17.3257 5.58324 17.4921 5.8999 17.8251C6.21657 18.158 6.3749 18.5582 6.3749 19.0257C6.3749 19.4794 6.21334 19.8679 5.89023 20.191C5.56709 20.5141 5.17865 20.6757 4.7249 20.6757ZM4.7249 14.3757C4.2574 14.3757 3.85719 14.2117 3.52428 13.8837C3.19136 13.5556 3.0249 13.1613 3.0249 12.7007C3.0249 12.2401 3.19136 11.8457 3.52428 11.5177C3.85719 11.1897 4.2574 11.0257 4.7249 11.0257C5.17865 11.0257 5.56709 11.1897 5.89023 11.5177C6.21334 11.8457 6.3749 12.2401 6.3749 12.7007C6.3749 13.1613 6.21334 13.5556 5.89023 13.8837C5.56709 14.2117 5.17865 14.3757 4.7249 14.3757ZM4.6999 8.05068C4.23929 8.05068 3.84496 7.88667 3.51693 7.55866C3.18891 7.23064 3.0249 6.83632 3.0249 6.37568C3.0249 5.91505 3.18891 5.52073 3.51693 5.19271C3.84496 4.86469 4.23929 4.70068 4.6999 4.70068C5.16052 4.70068 5.55484 4.86469 5.88288 5.19271C6.21089 5.52073 6.3749 5.91505 6.3749 6.37568C6.3749 6.83632 6.21089 7.23064 5.88288 7.55866C5.55484 7.88667 5.16052 8.05068 4.6999 8.05068Z" fill="black"/>
</g>
</svg>
