<svg width="24" height="25" viewBox="0 0 24 25" fill="none" xmlns="http://www.w3.org/2000/svg">
<g id="part" opacity="1">
<path id="Vector" d="M8.9 21.7007H4.5C4.1 21.7007 3.75 21.5507 3.45 21.2507C3.15 20.9507 3 20.6007 3 20.2007V15.8007C3.73333 15.7174 4.3625 15.4299 4.8875 14.9382C5.4125 14.4465 5.675 13.8424 5.675 13.1257C5.675 12.409 5.4125 11.8049 4.8875 11.3132C4.3625 10.8215 3.73333 10.534 3 10.4507V6.05068C3 5.65068 3.15 5.30068 3.45 5.00068C3.75 4.70068 4.1 4.55068 4.5 4.55068H8.925C9.10833 3.88402 9.4375 3.32568 9.9125 2.87568C10.3875 2.42568 10.9583 2.20068 11.625 2.20068C12.2917 2.20068 12.8625 2.42568 13.3375 2.87568C13.8125 3.32568 14.1417 3.88402 14.325 4.55068H18.65C19.05 4.55068 19.4 4.70068 19.7 5.00068C20 5.30068 20.15 5.65068 20.15 6.05068V10.3757C20.8167 10.559 21.3625 10.9049 21.7875 11.4132C22.2125 11.9215 22.425 12.509 22.425 13.1757C22.425 13.8424 22.2125 14.4007 21.7875 14.8507C21.3625 15.3007 20.8167 15.6174 20.15 15.8007V20.2007C20.15 20.6007 20 20.9507 19.7 21.2507C19.4 21.5507 19.05 21.7007 18.65 21.7007H14.25C14.1667 20.9007 13.8708 20.2549 13.3625 19.7632C12.8542 19.2715 12.2583 19.0257 11.575 19.0257C10.8917 19.0257 10.2958 19.2715 9.7875 19.7632C9.27917 20.2549 8.98333 20.9007 8.9 21.7007ZM4.5 20.2007H7.75C8.16667 19.184 8.74907 18.484 9.4972 18.1007C10.2453 17.7174 10.937 17.5257 11.5722 17.5257C12.2074 17.5257 12.9 17.7174 13.65 18.1007C14.4 18.484 14.9833 19.184 15.4 20.2007H18.65V14.3257H19.775C20.1083 14.3257 20.3833 14.2174 20.6 14.0007C20.8167 13.784 20.925 13.509 20.925 13.1757C20.925 12.8424 20.8167 12.5674 20.6 12.3507C20.3833 12.134 20.1083 12.0257 19.775 12.0257H18.65V6.05068H12.775V4.85068C12.775 4.51735 12.6667 4.24235 12.45 4.02568C12.2333 3.80902 11.9583 3.70068 11.625 3.70068C11.2917 3.70068 11.0167 3.80902 10.8 4.02568C10.5833 4.24235 10.475 4.51735 10.475 4.85068V6.05068H4.5V9.30068C5.3025 9.59763 5.94896 10.095 6.43938 10.7928C6.92979 11.4907 7.175 12.2701 7.175 13.1313C7.175 13.9775 6.92917 14.7507 6.4375 15.4507C5.94583 16.1507 5.3 16.6507 4.5 16.9507V20.2007Z" fill="#2244C0"/>
</g>
</svg>
