<svg width="24" height="25" viewBox="0 0 24 25" fill="none" xmlns="http://www.w3.org/2000/svg">
<g id="reports" opacity="1">
<path id="Vector" d="M4.5 21.7007C4.0875 21.7007 3.73438 21.5538 3.44063 21.2601C3.14688 20.9663 3 20.6132 3 20.2007V5.20068C3 4.78818 3.14688 4.43506 3.44063 4.14131C3.73438 3.84756 4.0875 3.70068 4.5 3.70068H9.625C9.70833 3.11735 9.975 2.63818 10.425 2.26318C10.875 1.88818 11.4 1.70068 12 1.70068C12.6 1.70068 13.125 1.88818 13.575 2.26318C14.025 2.63818 14.2917 3.11735 14.375 3.70068H19.5C19.9125 3.70068 20.2656 3.84756 20.5594 4.14131C20.8531 4.43506 21 4.78818 21 5.20068V20.2007C21 20.6132 20.8531 20.9663 20.5594 21.2601C20.2656 21.5538 19.9125 21.7007 19.5 21.7007H4.5ZM4.5 20.2007H19.5V5.20068H4.5V20.2007ZM7.75 17.7007H13.075C13.2875 17.7007 13.4656 17.6284 13.6094 17.4838C13.7531 17.3392 13.825 17.16 13.825 16.9463C13.825 16.7326 13.7531 16.5549 13.6094 16.4132C13.4656 16.2715 13.2875 16.2007 13.075 16.2007H7.75C7.5375 16.2007 7.35938 16.273 7.21563 16.4176C7.07188 16.5622 7 16.7413 7 16.9551C7 17.1688 7.07188 17.3465 7.21563 17.4882C7.35938 17.6299 7.5375 17.7007 7.75 17.7007ZM7.75 13.4507H16.25C16.4625 13.4507 16.6406 13.3784 16.7844 13.2338C16.9281 13.0892 17 12.91 17 12.6963C17 12.4826 16.9281 12.3049 16.7844 12.1632C16.6406 12.0215 16.4625 11.9507 16.25 11.9507H7.75C7.5375 11.9507 7.35938 12.023 7.21563 12.1676C7.07188 12.3122 7 12.4913 7 12.7051C7 12.9188 7.07188 13.0965 7.21563 13.2382C7.35938 13.3799 7.5375 13.4507 7.75 13.4507ZM7.75 9.20068H16.25C16.4625 9.20068 16.6406 9.12839 16.7844 8.98381C16.9281 8.83921 17 8.66004 17 8.44631C17 8.23256 16.9281 8.05485 16.7844 7.91318C16.6406 7.77152 16.4625 7.70068 16.25 7.70068H7.75C7.5375 7.70068 7.35938 7.77297 7.21563 7.91756C7.07188 8.06216 7 8.24132 7 8.45506C7 8.66881 7.07188 8.84652 7.21563 8.98818C7.35938 9.12985 7.5375 9.20068 7.75 9.20068ZM12 4.77568C12.2333 4.77568 12.4375 4.68818 12.6125 4.51318C12.7875 4.33818 12.875 4.13402 12.875 3.90068C12.875 3.66735 12.7875 3.46318 12.6125 3.28818C12.4375 3.11318 12.2333 3.02568 12 3.02568C11.7667 3.02568 11.5625 3.11318 11.3875 3.28818C11.2125 3.46318 11.125 3.66735 11.125 3.90068C11.125 4.13402 11.2125 4.33818 11.3875 4.51318C11.5625 4.68818 11.7667 4.77568 12 4.77568Z" fill="#2244C0"/>
</g>
</svg>
