<svg width="24" height="24" viewBox="0 0 24 24" fill="none" xmlns="http://www.w3.org/2000/svg">
<g id="settings" opacity="0.6">
<path id="Vector" d="M13.6501 22H10.3501C10.1668 22 10.0043 21.9417 9.8626 21.825C9.72093 21.7083 9.63343 21.5583 9.6001 21.375L9.2001 18.85C8.88343 18.7333 8.5501 18.575 8.2001 18.375C7.8501 18.175 7.54176 17.9667 7.2751 17.75L4.9501 18.825C4.76676 18.9083 4.58343 18.9208 4.4001 18.8625C4.21676 18.8042 4.0751 18.6833 3.9751 18.5L2.3251 15.575C2.2251 15.4083 2.2001 15.2333 2.2501 15.05C2.3001 14.8667 2.4001 14.7167 2.5501 14.6L4.7001 13.025C4.66676 12.875 4.64593 12.7042 4.6376 12.5125C4.62926 12.3208 4.6251 12.15 4.6251 12C4.6251 11.85 4.62926 11.6792 4.6376 11.4875C4.64593 11.2958 4.66676 11.125 4.7001 10.975L2.5501 9.4C2.4001 9.28333 2.3001 9.13333 2.2501 8.95C2.2001 8.76667 2.2251 8.59167 2.3251 8.425L3.9751 5.5C4.0751 5.31667 4.21676 5.19583 4.4001 5.1375C4.58343 5.07917 4.76676 5.09167 4.9501 5.175L7.2751 6.25C7.54176 6.03333 7.8501 5.825 8.2001 5.625C8.5501 5.425 8.88343 5.275 9.2001 5.175L9.6001 2.625C9.63343 2.44167 9.72093 2.29167 9.8626 2.175C10.0043 2.05833 10.1668 2 10.3501 2H13.6501C13.8334 2 13.9959 2.05833 14.1376 2.175C14.2793 2.29167 14.3668 2.44167 14.4001 2.625L14.8001 5.15C15.1168 5.26667 15.4543 5.42083 15.8126 5.6125C16.1709 5.80417 16.4751 6.01667 16.7251 6.25L19.0501 5.175C19.2334 5.09167 19.4168 5.07917 19.6001 5.1375C19.7834 5.19583 19.9251 5.31667 20.0251 5.5L21.6751 8.4C21.7751 8.56667 21.8043 8.74583 21.7626 8.9375C21.7209 9.12917 21.6168 9.28333 21.4501 9.4L19.3001 10.925C19.3334 11.0917 19.3543 11.2708 19.3626 11.4625C19.3709 11.6542 19.3751 11.8333 19.3751 12C19.3751 12.1667 19.3709 12.3417 19.3626 12.525C19.3543 12.7083 19.3334 12.8833 19.3001 13.05L21.4501 14.6C21.6001 14.7167 21.7001 14.8667 21.7501 15.05C21.8001 15.2333 21.7751 15.4083 21.6751 15.575L20.0251 18.5C19.9251 18.6833 19.7834 18.8042 19.6001 18.8625C19.4168 18.9208 19.2334 18.9083 19.0501 18.825L16.7251 17.75C16.4584 17.9667 16.1543 18.1792 15.8126 18.3875C15.4709 18.5958 15.1334 18.75 14.8001 18.85L14.4001 21.375C14.3668 21.5583 14.2793 21.7083 14.1376 21.825C13.9959 21.9417 13.8334 22 13.6501 22ZM12.0001 15.25C12.9001 15.25 13.6668 14.9333 14.3001 14.3C14.9334 13.6667 15.2501 12.9 15.2501 12C15.2501 11.1 14.9334 10.3333 14.3001 9.7C13.6668 9.06667 12.9001 8.75 12.0001 8.75C11.1001 8.75 10.3334 9.06667 9.7001 9.7C9.06676 10.3333 8.7501 11.1 8.7501 12C8.7501 12.9 9.06676 13.6667 9.7001 14.3C10.3334 14.9333 11.1001 15.25 12.0001 15.25ZM12.0001 13.75C11.5168 13.75 11.1043 13.5792 10.7626 13.2375C10.4209 12.8958 10.2501 12.4833 10.2501 12C10.2501 11.5167 10.4209 11.1042 10.7626 10.7625C11.1043 10.4208 11.5168 10.25 12.0001 10.25C12.4834 10.25 12.8959 10.4208 13.2376 10.7625C13.5793 11.1042 13.7501 11.5167 13.7501 12C13.7501 12.4833 13.5793 12.8958 13.2376 13.2375C12.8959 13.5792 12.4834 13.75 12.0001 13.75ZM10.9001 20.5H13.1001L13.4501 17.7C14.0001 17.5667 14.5209 17.3583 15.0126 17.075C15.5043 16.7917 15.9501 16.45 16.3501 16.05L19.0001 17.2L20.0001 15.4L17.6501 13.675C17.7168 13.3917 17.7709 13.1125 17.8126 12.8375C17.8543 12.5625 17.8751 12.2833 17.8751 12C17.8751 11.7167 17.8584 11.4375 17.8251 11.1625C17.7918 10.8875 17.7334 10.6083 17.6501 10.325L20.0001 8.6L19.0001 6.8L16.3501 7.95C15.9668 7.51667 15.5334 7.15417 15.0501 6.8625C14.5668 6.57083 14.0334 6.38333 13.4501 6.3L13.1001 3.5H10.9001L10.5501 6.3C9.98343 6.41667 9.45427 6.61667 8.9626 6.9C8.47093 7.18333 8.03343 7.53333 7.6501 7.95L5.0001 6.8L4.0001 8.6L6.3501 10.325C6.28343 10.6083 6.22926 10.8875 6.1876 11.1625C6.14593 11.4375 6.1251 11.7167 6.1251 12C6.1251 12.2833 6.14593 12.5625 6.1876 12.8375C6.22926 13.1125 6.28343 13.3917 6.3501 13.675L4.0001 15.4L5.0001 17.2L7.6501 16.05C8.0501 16.45 8.49593 16.7917 8.9876 17.075C9.47926 17.3583 10.0001 17.5667 10.5501 17.7L10.9001 20.5Z" fill="black"/>
</g>
</svg>
