<svg width="24" height="25" viewBox="0 0 24 25" fill="none" xmlns="http://www.w3.org/2000/svg">
<g id="tune" opacity="1">
<path id="Vector" d="M3.75 19.6507C3.5375 19.6507 3.35938 19.5784 3.21563 19.4338C3.07187 19.2892 3 19.11 3 18.8963C3 18.6826 3.07187 18.5049 3.21563 18.3632C3.35938 18.2215 3.5375 18.1507 3.75 18.1507H8.425C8.6375 18.1507 8.81563 18.223 8.95937 18.3676C9.10313 18.5122 9.175 18.6913 9.175 18.9051C9.175 19.1188 9.10313 19.2965 8.95937 19.4382C8.81563 19.5799 8.6375 19.6507 8.425 19.6507H3.75ZM3.75 7.25068C3.5375 7.25068 3.35938 7.17839 3.21563 7.03381C3.07187 6.88921 3 6.71004 3 6.49631C3 6.28256 3.07187 6.10485 3.21563 5.96318C3.35938 5.82152 3.5375 5.75068 3.75 5.75068H12.575C12.7875 5.75068 12.9656 5.82297 13.1094 5.96756C13.2531 6.11216 13.325 6.29133 13.325 6.50506C13.325 6.71881 13.2531 6.89652 13.1094 7.03818C12.9656 7.17985 12.7875 7.25068 12.575 7.25068H3.75ZM11.4206 21.7007C11.2069 21.7007 11.0292 21.6288 10.8875 21.4851C10.7458 21.3413 10.675 21.1632 10.675 20.9507V16.8257C10.675 16.6132 10.7473 16.4351 10.8919 16.2913C11.0365 16.1476 11.2156 16.0757 11.4294 16.0757C11.6431 16.0757 11.8208 16.1476 11.9625 16.2913C12.1042 16.4351 12.175 16.6132 12.175 16.8257V18.1507H20.25C20.4625 18.1507 20.6406 18.223 20.7844 18.3676C20.9281 18.5122 21 18.6913 21 18.9051C21 19.1188 20.9281 19.2965 20.7844 19.4382C20.6406 19.5799 20.4625 19.6507 20.25 19.6507H12.175V20.9507C12.175 21.1632 12.1027 21.3413 11.9581 21.4851C11.8135 21.6288 11.6344 21.7007 11.4206 21.7007ZM8.42063 15.5007C8.20688 15.5007 8.02917 15.4288 7.8875 15.2851C7.74583 15.1413 7.675 14.9632 7.675 14.7507V13.4507H3.75C3.5375 13.4507 3.35938 13.3784 3.21563 13.2338C3.07187 13.0892 3 12.91 3 12.6963C3 12.4826 3.07187 12.3049 3.21563 12.1632C3.35938 12.0215 3.5375 11.9507 3.75 11.9507H7.675V10.6007C7.675 10.3882 7.74729 10.2101 7.89187 10.0663C8.03647 9.92256 8.21564 9.85068 8.42937 9.85068C8.64312 9.85068 8.82083 9.92256 8.9625 10.0663C9.10417 10.2101 9.175 10.3882 9.175 10.6007V14.7507C9.175 14.9632 9.10271 15.1413 8.95813 15.2851C8.81353 15.4288 8.63436 15.5007 8.42063 15.5007ZM11.425 13.4507C11.2125 13.4507 11.0344 13.3784 10.8906 13.2338C10.7469 13.0892 10.675 12.91 10.675 12.6963C10.675 12.4826 10.7469 12.3049 10.8906 12.1632C11.0344 12.0215 11.2125 11.9507 11.425 11.9507H20.25C20.4625 11.9507 20.6406 12.023 20.7844 12.1676C20.9281 12.3122 21 12.4913 21 12.7051C21 12.9188 20.9281 13.0965 20.7844 13.2382C20.6406 13.3799 20.4625 13.4507 20.25 13.4507H11.425ZM15.5706 9.32568C15.3569 9.32568 15.1792 9.25381 15.0375 9.11006C14.8958 8.96631 14.825 8.78818 14.825 8.57568V4.45068C14.825 4.23818 14.8973 4.06006 15.0419 3.91631C15.1865 3.77256 15.3656 3.70068 15.5794 3.70068C15.7931 3.70068 15.9708 3.77256 16.1125 3.91631C16.2542 4.06006 16.325 4.23818 16.325 4.45068V5.75068H20.25C20.4625 5.75068 20.6406 5.82297 20.7844 5.96756C20.9281 6.11216 21 6.29133 21 6.50506C21 6.71881 20.9281 6.89652 20.7844 7.03818C20.6406 7.17985 20.4625 7.25068 20.25 7.25068H16.325V8.57568C16.325 8.78818 16.2527 8.96631 16.1081 9.11006C15.9635 9.25381 15.7844 9.32568 15.5706 9.32568Z" fill="#2244C0"/>
</g>
</svg>
