<svg width="24" height="25" viewBox="0 0 24 25" fill="none" xmlns="http://www.w3.org/2000/svg">
<g id="visibility" opacity="0.6">
<path id="Vector" d="M12.003 16.4507C13.1844 16.4507 14.1875 16.0372 15.0125 15.2102C15.8375 14.3833 16.25 13.3791 16.25 12.1977C16.25 11.0164 15.8366 10.0132 15.0096 9.18818C14.1826 8.36318 13.1785 7.95068 11.9971 7.95068C10.8157 7.95068 9.81255 8.36417 8.98755 9.19113C8.16255 10.0181 7.75005 11.0223 7.75005 12.2036C7.75005 13.385 8.16353 14.3882 8.9905 15.2132C9.81745 16.0382 10.8216 16.4507 12.003 16.4507ZM11.9942 15.0007C11.2148 15.0007 10.5542 14.7279 10.0125 14.1823C9.47088 13.6367 9.20005 12.9742 9.20005 12.1948C9.20005 11.4154 9.47284 10.7549 10.0184 10.2132C10.564 9.67152 11.2265 9.40068 12.0059 9.40068C12.7853 9.40068 13.4459 9.67347 13.9875 10.2191C14.5292 10.7647 14.8 11.4272 14.8 12.2066C14.8 12.986 14.5273 13.6465 13.9817 14.1882C13.4361 14.7299 12.7736 15.0007 11.9942 15.0007ZM12 19.7007C9.70005 19.7007 7.60422 19.0757 5.71255 17.8257C3.82088 16.5757 2.35959 14.925 1.32867 12.8738C1.27626 12.7917 1.23755 12.6909 1.21255 12.5713C1.18755 12.4518 1.17505 12.3282 1.17505 12.2007C1.17505 12.0732 1.18755 11.9496 1.21255 11.83C1.23755 11.7105 1.27626 11.6097 1.32867 11.5276C2.35959 9.47633 3.82088 7.82568 5.71255 6.57568C7.60422 5.32568 9.70005 4.70068 12 4.70068C14.3 4.70068 16.3959 5.32568 18.2875 6.57568C20.1792 7.82568 21.6405 9.47633 22.6714 11.5276C22.7238 11.6097 22.7625 11.7105 22.7875 11.83C22.8125 11.9496 22.825 12.0732 22.825 12.2007C22.825 12.3282 22.8125 12.4518 22.7875 12.5713C22.7625 12.6909 22.7238 12.7917 22.6714 12.8738C21.6405 14.925 20.1792 16.5757 18.2875 17.8257C16.3959 19.0757 14.3 19.7007 12 19.7007ZM11.9958 18.2007C14.0153 18.2007 15.8709 17.6549 17.5625 16.5632C19.2542 15.4715 20.5417 14.0174 21.425 12.2007C20.5417 10.384 19.2556 8.92985 17.5668 7.83818C15.8779 6.74652 14.0237 6.20068 12.0043 6.20068C9.98479 6.20068 8.12922 6.74652 6.43755 7.83818C4.74588 8.92985 3.45005 10.384 2.55005 12.2007C3.45005 14.0174 4.74447 15.4715 6.43332 16.5632C8.12219 17.6549 9.97636 18.2007 11.9958 18.2007Z" fill="black"/>
</g>
</svg>
