<svg width="32" height="33" viewBox="0 0 32 33" fill="none" xmlns="http://www.w3.org/2000/svg">
<g id="account_circle_FILL0_wght400_GRAD0_opsz48 (1) 1">
<path id="Vector" d="M7.39984 23.5819C8.79984 22.6041 10.1887 21.8541 11.5665 21.3319C12.9443 20.8096 14.4221 20.5485 15.9998 20.5485C17.5776 20.5485 19.0609 20.8096 20.4498 21.3319C21.8387 21.8541 23.2332 22.6041 24.6332 23.5819C25.6109 22.3819 26.3054 21.1708 26.7165 19.9485C27.1276 18.7263 27.3332 17.4374 27.3332 16.0819C27.3332 12.8596 26.2498 10.1652 24.0832 7.99853C21.9165 5.83187 19.2221 4.74854 15.9998 4.74854C12.7776 4.74854 10.0832 5.83187 7.9165 7.99853C5.74984 10.1652 4.6665 12.8596 4.6665 16.0819C4.6665 17.4374 4.87761 18.7263 5.29984 19.9485C5.72206 21.1708 6.42206 22.3819 7.39984 23.5819ZM15.9936 17.0819C14.7089 17.0819 13.6276 16.6409 12.7498 15.759C11.8721 14.8771 11.4332 13.7938 11.4332 12.509C11.4332 11.2242 11.8741 10.143 12.756 9.2652C13.6379 8.38742 14.7213 7.94853 16.006 7.94853C17.2908 7.94853 18.3721 8.38949 19.2498 9.2714C20.1276 10.1533 20.5665 11.2366 20.5665 12.5214C20.5665 13.8062 20.1255 14.8874 19.2436 15.7652C18.3617 16.643 17.2784 17.0819 15.9936 17.0819ZM16.0154 29.4152C14.1828 29.4152 12.4554 29.0652 10.8332 28.3652C9.21095 27.6652 7.79428 26.7096 6.58317 25.4985C5.37206 24.2874 4.4165 22.8734 3.7165 21.2563C3.0165 19.6393 2.6665 17.9115 2.6665 16.073C2.6665 14.2345 3.0165 12.5096 3.7165 10.8985C4.4165 9.28742 5.37206 7.87631 6.58317 6.6652C7.79428 5.45409 9.20835 4.49854 10.8254 3.79854C12.4424 3.09854 14.1702 2.74854 16.0087 2.74854C17.8472 2.74854 19.5721 3.09854 21.1832 3.79854C22.7943 4.49854 24.2054 5.45409 25.4165 6.6652C26.6276 7.87631 27.5832 9.28778 28.2832 10.8996C28.9832 12.5114 29.3332 14.2336 29.3332 16.0663C29.3332 17.8989 28.9832 19.6263 28.2832 21.2485C27.5832 22.8708 26.6276 24.2874 25.4165 25.4985C24.2054 26.7096 22.7939 27.6652 21.1821 28.3652C19.5703 29.0652 17.8481 29.4152 16.0154 29.4152ZM15.9998 27.4152C17.2221 27.4152 18.4165 27.2374 19.5832 26.8819C20.7498 26.5263 21.8998 25.9041 23.0332 25.0152C21.8998 24.2152 20.7443 23.6041 19.5665 23.1819C18.3887 22.7596 17.1998 22.5485 15.9998 22.5485C14.7998 22.5485 13.6109 22.7596 12.4332 23.1819C11.2554 23.6041 10.0998 24.2152 8.9665 25.0152C10.0998 25.9041 11.2498 26.5263 12.4165 26.8819C13.5832 27.2374 14.7776 27.4152 15.9998 27.4152ZM15.9998 15.0819C16.7554 15.0819 17.3721 14.843 17.8498 14.3652C18.3276 13.8874 18.5665 13.2708 18.5665 12.5152C18.5665 11.7596 18.3276 11.143 17.8498 10.6652C17.3721 10.1874 16.7554 9.94853 15.9998 9.94853C15.2443 9.94853 14.6276 10.1874 14.1498 10.6652C13.6721 11.143 13.4332 11.7596 13.4332 12.5152C13.4332 13.2708 13.6721 13.8874 14.1498 14.3652C14.6276 14.843 15.2443 15.0819 15.9998 15.0819Z" fill="black" fill-opacity="0.6"/>
</g>
</svg>
