<svg width="32" height="33" viewBox="0 0 32 33" fill="none" xmlns="http://www.w3.org/2000/svg">
<g id="notifications_24dp_FILL0_wght300_GRAD0_opsz24 1">
<path id="Vector" d="M7 25.2615C6.71667 25.2615 6.47922 25.1658 6.28767 24.9742C6.09589 24.7824 6 24.5448 6 24.2612C6 23.9779 6.09589 23.7404 6.28767 23.5489C6.47922 23.3575 6.71667 23.2619 7 23.2619H8.41033V13.3129C8.41033 11.5197 8.96378 9.9343 10.0707 8.55653C11.1773 7.17875 12.5982 6.29753 14.3333 5.91286V5.08219C14.3333 4.61931 14.4952 4.22575 14.819 3.90153C15.1428 3.57753 15.5359 3.41553 15.9983 3.41553C16.461 3.41553 16.8547 3.57753 17.1793 3.90153C17.5042 4.22575 17.6667 4.61931 17.6667 5.08219V5.91286C19.4018 6.29753 20.8227 7.17875 21.9293 8.55653C23.0362 9.9343 23.5897 11.5197 23.5897 13.3129V23.2619H25C25.2833 23.2619 25.5208 23.3576 25.7123 23.5492C25.9041 23.741 26 23.9786 26 24.2622C26 24.5455 25.9041 24.783 25.7123 24.9745C25.5208 25.1659 25.2833 25.2615 25 25.2615H7ZM15.9977 29.0052C15.3343 29.0052 14.7672 28.7692 14.2963 28.2972C13.8252 27.8252 13.5897 27.2578 13.5897 26.5949H18.4103C18.4103 27.26 18.1741 27.828 17.7017 28.2989C17.2292 28.7698 16.6612 29.0052 15.9977 29.0052ZM10.4103 23.2619H21.5897V13.3129C21.5897 11.7693 21.044 10.4519 19.9527 9.36053C18.8611 8.26897 17.5436 7.72319 16 7.72319C14.4564 7.72319 13.1389 8.26897 12.0473 9.36053C10.956 10.4519 10.4103 11.7693 10.4103 13.3129V23.2619Z" fill="black" fill-opacity="0.6"/>
</g>
</svg>
