<svg width="140" height="30" viewBox="0 0 140 30" fill="none" xmlns="http://www.w3.org/2000/svg">
<g id="Layer_1" clip-path="url(#clip0_172_363)">
<path id="Vector" d="M0 5.30914V5.31741V10.6183V10.6265V15.9274V15.9357V21.2366V21.2448V26.554H0.749656V29.7006H2.50162V29.3698H1.08514V26.554H1.41648V29.039H2.50162V28.7041H1.74782V26.554H2.50162V21.2448V21.2366V15.9357V15.9274V10.6265V10.6183V5.31741V5.30914V0H0V5.30914Z" fill="#2244C0"/>
<path id="Vector_2" d="M2.50586 5.30914V5.31741V10.6183V10.6265V15.9274V15.9357V21.2366V21.2448V26.554H5.00333V21.2448V21.2366V15.9357V15.9274V10.6265V10.6183V5.31741V5.30914V0H2.50586V5.30914Z" fill="#2244C0"/>
<path id="Vector_3" d="M12.5288 5.30914V5.31741V10.6265H15.0304V5.31741V5.30914V0H12.5288V5.30914Z" fill="#2244C0"/>
<path id="Vector_4" d="M17.536 0H15.0344V5.31741H17.536V0Z" fill="#2244C0"/>
<path id="Vector_5" d="M17.5444 2.49313H18.9609V5.30895V5.31722V8.13305H17.5444V8.46384H19.2923V5.31722V5.30895V2.1582H17.5444V2.49313Z" fill="#2244C0"/>
<path id="Vector_6" d="M22.5518 5.30914V5.31741V10.6183V10.6265V15.9274V15.9357V21.2366V21.2448V26.554H25.0534V21.2448V21.2366V15.9357V15.9274V10.6265V10.6183V5.31741V5.30914V0H22.5518V5.30914Z" fill="#2244C0"/>
<path id="Vector_7" d="M27.5592 0H25.0576V5.31741H27.5592V0Z" fill="#2244C0"/>
<path id="Vector_8" d="M30.0648 0H27.5632V5.31741H30.0648V0Z" fill="#2244C0"/>
<path id="Vector_9" d="M32.5749 0H30.0732V5.31741H32.5749V0Z" fill="#2244C0"/>
<path id="Vector_10" d="M32.575 5.30914V5.31741V10.6183V10.6265V15.9274V15.9357V21.2366V21.2448V26.554H33.3287V29.7006H35.0766V29.3698H33.6601V26.554H33.9956V29.039H35.0766V28.7041H34.3269V26.554H35.0766V21.2448V21.2366V15.9357V15.9274V10.6265V10.6183V5.31741V5.30914V0H32.575V5.30914Z" fill="#2244C0"/>
<path id="Vector_11" d="M36.8325 2.1582H35.0806V2.49313H36.497V5.30895H36.1657V2.82391H35.0806V3.1547H35.8302V5.30895H35.0806V10.6181V10.6264V15.9272V15.9355V21.2364V21.2446V26.5538H37.5822V21.2446V21.2364V15.9355V15.9272V10.6264V10.6181V5.30895H36.8325V2.1582Z" fill="#2244C0"/>
<path id="Vector_12" d="M40.0962 5.30914V5.31741V10.6183V10.6265V15.9274V15.9357V21.2366V21.2448V26.554H40.8459V29.7006H42.5978V29.3698H41.1813V26.554H41.5127V29.039H42.5978V28.7041H41.844V26.554H42.5978V21.2448V21.2366V15.9357V15.9274V10.6265V10.6183V5.31741V5.30914V0H40.0962V5.30914Z" fill="#2244C0"/>
<path id="Vector_13" d="M42.6021 5.30914V5.31741V10.6183V10.6265V15.9274V15.9357V21.2366V21.2448V26.554H45.0995V21.2448V21.2366V15.9357V15.9274V10.6265V10.6183V5.31741V5.30914V0H42.6021V5.30914Z" fill="#2244C0"/>
<path id="Vector_14" d="M47.6093 0H45.1077V5.31741H47.6093V0Z" fill="#2244C0"/>
<path id="Vector_15" d="M50.111 0H47.6094V5.31741H50.111V0Z" fill="#2244C0"/>
<path id="Vector_16" d="M52.6169 0H50.1152V5.31741H52.6169V0Z" fill="#2244C0"/>
<path id="Vector_17" d="M52.625 5.30914V5.31741V10.6183V10.6265V15.9274V15.9357V21.2366V21.2448V26.554H55.1266V21.2448V21.2366V15.9357V15.9274V10.6265V10.6183V5.31741V5.30914V0H52.625V5.30914Z" fill="#2244C0"/>
<path id="Vector_18" d="M56.8787 2.1582H55.1309V2.49313H56.5473V5.30895H56.2119V2.82391H55.1309V3.1547H55.8805V5.30895H55.1309V10.6181V10.6264V15.9272V15.9355V21.2446H57.6283V15.9355V15.9272V10.6264V10.6181V5.30895H56.8787V2.1582Z" fill="#2244C0"/>
<path id="Vector_19" d="M62.6482 5.30914V5.31741V10.6183V10.6265V15.9274V15.9357V21.2366V21.2448V26.554H65.1498V21.2448V21.2366V15.9357V15.9274V10.6265V10.6183V5.31741V5.30914V0H62.6482V5.30914Z" fill="#2244C0"/>
<path id="Vector_20" d="M67.6554 0H65.1538V5.31741H67.6554V0Z" fill="#2244C0"/>
<path id="Vector_21" d="M70.1613 0H67.6597V5.31741H70.1613V0Z" fill="#2244C0"/>
<path id="Vector_22" d="M72.6669 0H70.1653V5.31741H72.6669V0Z" fill="#2244C0"/>
<path id="Vector_23" d="M72.667 5.30914V5.31741V10.6183V10.6265V15.9274V15.9357V21.2366V21.2448V26.554H73.4208V29.7006H75.1686V29.3698H73.7521V26.554H74.0835V29.039H75.1686V28.7041H74.419V26.554H75.1686V21.2448V21.2366V15.9357V15.9274V10.6265V10.6183V5.31741V5.30914V0H72.667V5.30914Z" fill="#2244C0"/>
<path id="Vector_24" d="M76.9287 2.1582H75.1768V2.49313H76.5932V5.30895H76.2619V2.82391H75.1768V3.1547H75.9264V5.30895H75.1768V10.6181V10.6264V15.9272V15.9355V21.2364V21.2446V26.5538H77.6784V21.2446V21.2364V15.9355V15.9272V10.6264V10.6181V5.30895H76.9287V2.1582Z" fill="#2244C0"/>
<path id="Vector_25" d="M80.1885 5.30914V5.31741V10.6183V10.6265V15.9274V15.9357V21.2366V21.2448V26.554H80.9381V29.7006H82.686V29.3698H81.2695V26.554H81.605V29.039H82.686V28.7041H81.9363V26.554H82.686V21.2448V21.2366V15.9357V15.9274V10.6265V10.6183V5.31741V5.30914V0H80.1885V5.30914Z" fill="#2244C0"/>
<path id="Vector_26" d="M82.6941 5.30914V5.31741V10.6183V10.6265V15.9274V15.9357V21.2366V21.2448V26.554H85.1916V21.2448V21.2366V15.9357V15.9274V10.6265V10.6183V5.31741V5.30914V0H82.6941V5.30914Z" fill="#2244C0"/>
<path id="Vector_27" d="M87.7016 0H85.2V5.31741H87.7016V0Z" fill="#2244C0"/>
<path id="Vector_28" d="M90.2072 0H87.7056V5.31741H90.2072V0Z" fill="#2244C0"/>
<path id="Vector_29" d="M92.713 0H90.2114V5.31741H92.713V0Z" fill="#2244C0"/>
<path id="Vector_30" d="M92.7173 5.30914V5.31741V10.6183V10.6265V15.9274V15.9357V21.2366V21.2448V26.554H95.2148V21.2448V21.2366V15.9357V15.9274V10.6265V10.6183V5.31741V5.30914V0H92.7173V5.30914Z" fill="#2244C0"/>
<path id="Vector_31" d="M96.9707 2.1582H95.2229V2.49313H96.6394V5.30895H96.3039V2.82391H95.2229V3.1547H95.9726V5.30895H95.2229V10.6264H97.7204V5.30895H96.9707V2.1582Z" fill="#2244C0"/>
<path id="Vector_32" d="M100.234 5.30914V5.31741V10.6183V10.6265V15.9274V15.9357V21.2366V21.2448V26.554H100.984V29.7006H102.736V29.3698H101.32V26.554H101.651V29.039H102.736V28.7041H101.986V26.554H102.736V21.2448V21.2366V15.9357V15.9274V10.6265V10.6183V5.31741V5.30914V0H100.234V5.30914Z" fill="#2244C0"/>
<path id="Vector_33" d="M102.74 5.30914V5.31741V10.6183V10.6265V15.9274V15.9357V21.2366V21.2448V26.554H105.242V21.2448V21.2366V15.9357V15.9274V10.6265V10.6183V5.31741V5.30914V0H102.74V5.30914Z" fill="#2244C0"/>
<path id="Vector_34" d="M107.747 0H105.246V5.31741H107.747V0Z" fill="#2244C0"/>
<path id="Vector_35" d="M110.257 0H107.756V5.31741H110.257V0Z" fill="#2244C0"/>
<path id="Vector_36" d="M112.759 0H110.258V5.31741H112.759V0Z" fill="#2244C0"/>
<path id="Vector_37" d="M112.763 5.30914V5.31741V10.6183V10.6265V15.9274V15.9357V21.2366V21.2448V26.554H113.513V29.7006H115.265V29.3698H113.848V26.554H114.18V29.039H115.265V28.7041H114.515V26.554H115.265V21.2448V21.2366V15.9357V15.9274V10.6265V10.6183V5.31741V5.30914V0H112.763V5.30914Z" fill="#2244C0"/>
<path id="Vector_38" d="M117.017 2.1582H115.269V2.49313H116.686V5.30895H116.354V2.82391H115.269V3.1547H116.019V5.30895H115.269V10.6264H117.771V5.30895H117.017V2.1582Z" fill="#2244C0"/>
<path id="Vector_39" d="M122.786 5.30914V5.31741V10.6183V10.6265V15.9274V15.9357V21.2366V21.2448V26.554H125.288V21.2448V21.2366V15.9357V15.9274V10.6265V10.6183V5.31741V5.30914V0H122.786V5.30914Z" fill="#2244C0"/>
<path id="Vector_40" d="M127.794 0H125.292V5.31741H127.794V0Z" fill="#2244C0"/>
<path id="Vector_41" d="M130.299 0H127.798V5.31741H130.299V0Z" fill="#2244C0"/>
<path id="Vector_42" d="M132.809 0H130.308V5.31741H132.809V0Z" fill="#2244C0"/>
<path id="Vector_43" d="M132.813 5.30914V5.31741V10.6183V10.6265V15.9274V15.9357V21.2366V21.2448V26.554H133.563V29.7006H135.311V29.3698H133.894V26.554H134.23V29.039H135.311V28.7041H134.561V26.554H135.311V21.2448V21.2366V15.9357V15.9274V10.6265V10.6183V5.31741V5.30914V0H132.813V5.30914Z" fill="#2244C0"/>
<path id="Vector_44" d="M137.067 2.1582H135.315V2.49313H136.736V5.30895H136.4V2.82391H135.315V3.1547H136.069V5.30895H135.315V10.6181V10.6264V15.9272V15.9355V21.2364V21.2446V26.5538H137.817V21.2446V21.2364V15.9355V15.9272V10.6264V10.6181V5.30895H137.067V2.1582Z" fill="#2244C0"/>
<path id="Vector_45" d="M6.75929 5.31722V5.30895V2.1582H5.01147V2.49313H6.42795V5.30895V5.31722V10.6181H6.09247V5.31722V5.30895V2.82391H5.01147V3.1547H5.76113V5.30895V5.31722V10.6181H5.01147V15.9355H7.50895V10.6181H6.75929V5.31722Z" fill="#2244C0"/>
<path id="Vector_46" d="M10.0229 10.6182V10.6265V15.9274V15.9356V21.2448H12.5246V15.9356V15.9274V10.6265V10.6182V5.30908H10.0229V10.6182Z" fill="#2244C0"/>
<path id="Vector_47" d="M16.4509 10.6183V10.6266V13.4424H15.0344V13.7732H16.7822V10.6266V10.6183V8.46409H17.5319V8.1333H16.4509V10.6183Z" fill="#2244C0"/>
<path id="Vector_48" d="M15.7841 10.618V10.6263V12.7764H15.0344V13.1113H16.1154V10.6263V10.618V7.80221H17.5319V7.46729H15.7841V10.618Z" fill="#2244C0"/>
<path id="Vector_49" d="M18.6254 5.31753V5.30926V2.82422H17.5444V3.15501H18.2941V5.30926V5.31753V7.46765H17.5444V7.80257H18.6254V5.31753Z" fill="#2244C0"/>
<path id="Vector_50" d="M20.0461 10.6182V10.6265V15.9274V15.9356V21.2365V21.2448V26.5539H20.7999V29.7005H22.5478V29.3697H21.1313V26.5539H21.4668V29.039H22.5478V28.704H21.7981V26.5539H22.5478V21.2448V21.2365V15.9356V15.9274V10.6265V10.6182V5.30908H20.0461V10.6182Z" fill="#2244C0"/>
<path id="Vector_51" d="M25.8073 10.618H25.0576V15.9354H27.5592V10.618H26.8054V8.46378H27.5592V8.133H26.4741V10.618H26.1428V7.80221H27.5592V7.46729H25.8073V10.618Z" fill="#2244C0"/>
<path id="Vector_52" d="M30.0648 7.46729H27.5632V7.79807H30.0648V7.46729Z" fill="#2244C0"/>
<path id="Vector_53" d="M30.0648 8.1333H27.5632V8.46409H30.0648V8.1333Z" fill="#2244C0"/>
<path id="Vector_54" d="M32.5749 8.1333H30.0732V8.46409H32.5749V8.1333Z" fill="#2244C0"/>
<path id="Vector_55" d="M32.5749 7.46729H30.0732V7.79807H32.5749V7.46729Z" fill="#2244C0"/>
<path id="Vector_56" d="M37.5864 7.80221H39.0029V10.618V10.6263V15.9272V15.9354V21.2363V21.2446V26.5455V26.5537V29.3696H37.5864V29.7003H39.3342V26.5537V26.5455V21.2446V21.2363V15.9354V15.9272V10.6263V10.618V7.46729H37.5864V7.80221Z" fill="#2244C0"/>
<path id="Vector_57" d="M45.8573 10.618V10.6263V15.9272V15.9354V21.2363H45.1077V26.5537H47.6051V21.2363H46.8555V15.9354V15.9272V10.6263V10.618V8.46378H47.6051V8.133H46.5241V10.618V10.6263V15.9272V15.9354V21.2363H46.1887V15.9354V15.9272V10.6263V10.618V7.80221H47.6051V7.46729H45.8573V10.618Z" fill="#2244C0"/>
<path id="Vector_58" d="M50.111 8.1333H47.6094V8.46409H50.111V8.1333Z" fill="#2244C0"/>
<path id="Vector_59" d="M50.111 7.46729H47.6094V7.79807H50.111V7.46729Z" fill="#2244C0"/>
<path id="Vector_60" d="M52.6169 8.1333H50.1152V8.46409H52.6169V8.1333Z" fill="#2244C0"/>
<path id="Vector_61" d="M52.6169 7.46729H50.1152V7.79807H52.6169V7.46729Z" fill="#2244C0"/>
<path id="Vector_62" d="M57.6365 7.80221H59.053V10.618V10.6263V15.9272V15.9354V21.2363V21.2446V24.0604H57.6365V24.3912H59.3843V21.2446V21.2363V15.9354V15.9272V10.6263V10.618V7.46729H57.6365V7.80221Z" fill="#2244C0"/>
<path id="Vector_63" d="M60.1382 10.6182V10.6265V15.9274V15.9356V21.2365V21.2448V26.5539H60.892V29.7005H62.6398V29.3697H61.2233V26.5539H61.5547V29.039H62.6398V28.704H61.8901V26.5539H62.6398V21.2448V21.2365V15.9356V15.9274V10.6265V10.6182V5.30908H60.1382V10.6182Z" fill="#2244C0"/>
<path id="Vector_64" d="M65.9035 10.618H65.1538V15.9354H67.6554V10.618H66.9016V8.46378H67.6554V8.133H66.5703V10.618H66.2389V7.80221H67.6554V7.46729H65.9035V10.618Z" fill="#2244C0"/>
<path id="Vector_65" d="M70.1613 7.46729H67.6597V7.79807H70.1613V7.46729Z" fill="#2244C0"/>
<path id="Vector_66" d="M70.1613 8.1333H67.6597V8.46409H70.1613V8.1333Z" fill="#2244C0"/>
<path id="Vector_67" d="M72.6669 7.46729H70.1653V7.79807H72.6669V7.46729Z" fill="#2244C0"/>
<path id="Vector_68" d="M72.6669 8.1333H70.1653V8.46409H72.6669V8.1333Z" fill="#2244C0"/>
<path id="Vector_69" d="M77.6826 7.80221H79.0991V10.618V10.6263V15.9272V15.9354V21.2363V21.2446V26.5455V26.5537V29.3696H77.6826V29.7003H79.4304V26.5537V26.5455V21.2446V21.2363V15.9354V15.9272V10.6263V10.618V7.46729H77.6826V7.80221Z" fill="#2244C0"/>
<path id="Vector_70" d="M85.9537 10.618H85.2V15.9354H87.7016V10.618H86.9519V8.46378H87.7016V8.133H86.6164V10.618H86.2851V7.80221H87.7016V7.46729H85.9537V10.618Z" fill="#2244C0"/>
<path id="Vector_71" d="M90.2072 7.46729H87.7056V7.79807H90.2072V7.46729Z" fill="#2244C0"/>
<path id="Vector_72" d="M90.2072 8.1333H87.7056V8.46409H90.2072V8.1333Z" fill="#2244C0"/>
<path id="Vector_73" d="M92.713 7.46729H90.2114V7.79807H92.713V7.46729Z" fill="#2244C0"/>
<path id="Vector_74" d="M92.713 8.1333H90.2114V8.46409H92.713V8.1333Z" fill="#2244C0"/>
<path id="Vector_75" d="M97.7288 7.80221H99.1452V10.618V10.6263V13.4421H97.7288V13.7729H99.4807V10.6263V10.618V7.46729H97.7288V7.80221Z" fill="#2244C0"/>
<path id="Vector_76" d="M105.996 10.618H105.246V15.9354H107.743V10.618H106.994V8.46378H107.743V8.133H106.662V10.618H106.327V7.80221H107.743V7.46729H105.996V10.618Z" fill="#2244C0"/>
<path id="Vector_77" d="M110.257 7.46729H107.756V7.79807H110.257V7.46729Z" fill="#2244C0"/>
<path id="Vector_78" d="M110.257 8.1333H107.756V8.46409H110.257V8.1333Z" fill="#2244C0"/>
<path id="Vector_79" d="M112.759 7.46729H110.258V7.79807H112.759V7.46729Z" fill="#2244C0"/>
<path id="Vector_80" d="M112.759 8.1333H110.258V8.46409H112.759V8.1333Z" fill="#2244C0"/>
<path id="Vector_81" d="M117.775 7.80221H119.191V10.618V10.6263V13.4421H117.775V13.7729H119.522V10.6263V10.618V7.46729H117.775V7.80221Z" fill="#2244C0"/>
<path id="Vector_82" d="M120.285 10.6182V10.6265V15.9274V15.9356V21.2365V21.2448V26.5539H121.034V29.7005H122.782V29.3697H121.366V26.5539H121.701V29.039H122.782V28.704H122.032V26.5539H122.782V21.2448V21.2365V15.9356V15.9274V10.6265V10.6182V5.30908H120.285V10.6182Z" fill="#2244C0"/>
<path id="Vector_83" d="M126.046 10.618H125.292V15.9354H127.794V10.618H127.044V8.46378H127.794V8.133H126.708V10.618H126.377V7.80221H127.794V7.46729H126.046V10.618Z" fill="#2244C0"/>
<path id="Vector_84" d="M130.299 7.46729H127.798V7.79807H130.299V7.46729Z" fill="#2244C0"/>
<path id="Vector_85" d="M130.299 8.1333H127.798V8.46409H130.299V8.1333Z" fill="#2244C0"/>
<path id="Vector_86" d="M132.809 8.1333H130.308V8.46409H132.809V8.1333Z" fill="#2244C0"/>
<path id="Vector_87" d="M132.809 7.46729H130.308V7.79807H132.809V7.46729Z" fill="#2244C0"/>
<path id="Vector_88" d="M138.015 7.46729V7.80221H139.436V10.618V10.6263V15.9272V15.9354V21.2363V21.2446V26.5455V26.5537V29.3696H138.015V29.7003H139.767V26.5537V26.5455V21.2446V21.2363V15.9354V15.9272V10.6263V10.618V7.46729H138.015Z" fill="#2244C0"/>
<path id="Vector_89" d="M10.019 10.6182H7.51733V15.9356H10.019V10.6182Z" fill="#2244C0"/>
<path id="Vector_90" d="M13.2785 15.9276H12.5288V21.2367V21.245V26.5542H13.2785V29.7008H15.0304V29.37H13.6139V26.5542H13.9453V29.0392H15.0304V28.7043H14.2766V26.5542H15.0304V21.245V21.2367V15.9276H14.2766V13.7734H15.0304V13.4426H13.9453V15.9276H13.6139V13.1118H15.0304V12.7769H13.2785V15.9276Z" fill="#2244C0"/>
<path id="Vector_91" d="M30.0648 10.6182H27.5632V15.9356H30.0648V10.6182Z" fill="#2244C0"/>
<path id="Vector_92" d="M32.5749 10.6182H30.0732V15.9356H32.5749V10.6182Z" fill="#2244C0"/>
<path id="Vector_93" d="M70.1613 10.6182H67.6597V15.9356H70.1613V10.6182Z" fill="#2244C0"/>
<path id="Vector_94" d="M72.6669 10.6182H70.1653V15.9356H72.6669V10.6182Z" fill="#2244C0"/>
<path id="Vector_95" d="M90.2072 10.6182H87.7056V15.9356H90.2072V10.6182Z" fill="#2244C0"/>
<path id="Vector_96" d="M92.713 10.6182H90.2114V15.9356H92.713V10.6182Z" fill="#2244C0"/>
<path id="Vector_97" d="M95.9726 15.9276H95.2229V21.245H97.7204V15.9276H96.9707V13.7734H97.7204V13.4426H96.6394V15.9276H96.3039V13.1118H97.7204V12.7769H95.9726V15.9276Z" fill="#2244C0"/>
<path id="Vector_98" d="M98.8139 10.6266V10.6183V8.1333H97.7288V8.46409H98.4826V10.6183V10.6266V12.7767H97.7288V13.1117H98.8139V10.6266Z" fill="#2244C0"/>
<path id="Vector_99" d="M110.257 10.6182H107.756V15.9356H110.257V10.6182Z" fill="#2244C0"/>
<path id="Vector_100" d="M112.759 10.6182H110.258V15.9356H112.759V10.6182Z" fill="#2244C0"/>
<path id="Vector_101" d="M116.019 15.9276H115.269V21.2367V21.245V26.5542H117.771V21.245V21.2367V15.9276H117.017V13.7734H117.771V13.4426H116.686V15.9276H116.354V13.1118H117.771V12.7769H116.019V15.9276Z" fill="#2244C0"/>
<path id="Vector_102" d="M118.856 10.6266V10.6183V8.1333H117.775V8.46409H118.524V10.6183V10.6266V12.7767H117.775V13.1117H118.856V10.6266Z" fill="#2244C0"/>
<path id="Vector_103" d="M130.299 10.6182H127.798V15.9356H130.299V10.6182Z" fill="#2244C0"/>
<path id="Vector_104" d="M132.809 10.6182H130.308V15.9356H132.809V10.6182Z" fill="#2244C0"/>
<path id="Vector_105" d="M5.76113 21.2367V21.245V26.5458V26.5541V28.7042H5.01147V29.0391H6.09247V26.5541V26.5458V21.245V21.2367V18.4209H7.50895V18.0859H5.76113V21.2367Z" fill="#2244C0"/>
<path id="Vector_106" d="M6.42795 21.2365V21.2448V26.5456V26.5539V29.3697H5.01147V29.7005H6.75929V26.5539V26.5456V21.2448V21.2365V19.0823H7.50895V18.7515H6.42795V21.2365Z" fill="#2244C0"/>
<path id="Vector_107" d="M10.019 18.0859H7.51733V18.4167H10.019V18.0859Z" fill="#2244C0"/>
<path id="Vector_108" d="M10.019 18.7515H7.51733V19.0823H10.019V18.7515Z" fill="#2244C0"/>
<path id="Vector_109" d="M16.7822 18.0859H15.0344V18.4209H16.4509V21.2367H16.1154V18.7516H15.0344V19.0824H15.7841V21.2367H15.0344V26.5541H17.5319V21.2367H16.7822V18.0859Z" fill="#2244C0"/>
<path id="Vector_110" d="M25.8073 21.2367V21.245V26.5458V26.5541V28.7042H25.0576V29.0391H26.1428V26.5541V26.5458V21.245V21.2367V18.4209H27.5592V18.0859H25.8073V21.2367Z" fill="#2244C0"/>
<path id="Vector_111" d="M26.4741 21.2365V21.2448V26.5456V26.5539V29.3697H25.0576V29.7005H26.8054V26.5539V26.5456V21.2448V21.2365V19.0823H27.5592V18.7515H26.4741V21.2365Z" fill="#2244C0"/>
<path id="Vector_112" d="M30.0648 18.0859H27.5632V18.4167H30.0648V18.0859Z" fill="#2244C0"/>
<path id="Vector_113" d="M30.0648 18.7515H27.5632V19.0823H30.0648V18.7515Z" fill="#2244C0"/>
<path id="Vector_114" d="M32.5749 18.7515H30.0732V19.0823H32.5749V18.7515Z" fill="#2244C0"/>
<path id="Vector_115" d="M32.5749 18.0859H30.0732V18.4167H32.5749V18.0859Z" fill="#2244C0"/>
<path id="Vector_116" d="M66.5703 21.2365V21.2448V26.5456V26.5539V29.3697H65.1538V29.7005H66.9016V26.5539V26.5456V21.2448V21.2365V19.0823H67.6554V18.7515H66.5703V21.2365Z" fill="#2244C0"/>
<path id="Vector_117" d="M65.9035 21.2367V21.245V26.5458V26.5541V28.7042H65.1538V29.0391H66.2389V26.5541V26.5458V21.245V21.2367V18.4209H67.6554V18.0859H65.9035V21.2367Z" fill="#2244C0"/>
<path id="Vector_118" d="M70.1613 18.0859H67.6597V18.4167H70.1613V18.0859Z" fill="#2244C0"/>
<path id="Vector_119" d="M70.1613 18.7515H67.6597V19.0823H70.1613V18.7515Z" fill="#2244C0"/>
<path id="Vector_120" d="M72.6669 18.7515H70.1653V19.0823H72.6669V18.7515Z" fill="#2244C0"/>
<path id="Vector_121" d="M72.6669 18.0859H70.1653V18.4167H72.6669V18.0859Z" fill="#2244C0"/>
<path id="Vector_122" d="M85.9537 21.2367H85.2V26.5541H87.7016V21.2367H86.9519V19.0824H87.7016V18.7516H86.6164V21.2367H86.2851V18.4209H87.7016V18.0859H85.9537V21.2367Z" fill="#2244C0"/>
<path id="Vector_123" d="M90.2072 18.0859H87.7056V18.4167H90.2072V18.0859Z" fill="#2244C0"/>
<path id="Vector_124" d="M90.2072 18.7515H87.7056V19.0823H90.2072V18.7515Z" fill="#2244C0"/>
<path id="Vector_125" d="M92.713 18.7515H90.2114V19.0823H92.713V18.7515Z" fill="#2244C0"/>
<path id="Vector_126" d="M92.713 18.0859H90.2114V18.4167H92.713V18.0859Z" fill="#2244C0"/>
<path id="Vector_127" d="M97.7288 18.4209H99.1452V21.2367V21.245V24.0608H97.7288V24.3916H99.4807V21.245V21.2367V18.0859H97.7288V18.4209Z" fill="#2244C0"/>
<path id="Vector_128" d="M106.662 21.2365V21.2448V26.5456V26.5539V29.3697H105.246V29.7005H106.994V26.5539V26.5456V21.2448V21.2365V19.0823H107.743V18.7515H106.662V21.2365Z" fill="#2244C0"/>
<path id="Vector_129" d="M105.996 21.2367V21.245V26.5458V26.5541V28.7042H105.246V29.0391H106.327V26.5541V26.5458V21.245V21.2367V18.4209H107.743V18.0859H105.996V21.2367Z" fill="#2244C0"/>
<path id="Vector_130" d="M110.257 18.7515H107.756V19.0823H110.257V18.7515Z" fill="#2244C0"/>
<path id="Vector_131" d="M110.257 18.0859H107.756V18.4167H110.257V18.0859Z" fill="#2244C0"/>
<path id="Vector_132" d="M112.759 18.7515H110.258V19.0823H112.759V18.7515Z" fill="#2244C0"/>
<path id="Vector_133" d="M112.759 18.0859H110.258V18.4167H112.759V18.0859Z" fill="#2244C0"/>
<path id="Vector_134" d="M117.775 18.4209H119.191V21.2367V21.245V26.5458V26.5541V29.3699H117.775V29.7007H119.522V26.5541V26.5458V21.245V21.2367V18.0859H117.775V18.4209Z" fill="#2244C0"/>
<path id="Vector_135" d="M126.046 21.2367V21.245V26.5458V26.5541V28.7042H125.292V29.0391H126.377V26.5541V26.5458V21.245V21.2367V18.4209H127.794V18.0859H126.046V21.2367Z" fill="#2244C0"/>
<path id="Vector_136" d="M126.708 21.2365V21.2448V26.5456V26.5539V29.3697H125.292V29.7005H127.044V26.5539V26.5456V21.2448V21.2365V19.0823H127.794V18.7515H126.708V21.2365Z" fill="#2244C0"/>
<path id="Vector_137" d="M130.299 18.7515H127.798V19.0823H130.299V18.7515Z" fill="#2244C0"/>
<path id="Vector_138" d="M130.299 18.0859H127.798V18.4167H130.299V18.0859Z" fill="#2244C0"/>
<path id="Vector_139" d="M132.809 18.0859H130.308V18.4167H132.809V18.0859Z" fill="#2244C0"/>
<path id="Vector_140" d="M132.809 18.7515H130.308V19.0823H132.809V18.7515Z" fill="#2244C0"/>
<path id="Vector_141" d="M17.5444 23.7299H18.9609V26.5458V26.554V29.3699H17.5444V29.7007H19.2923V26.554V26.5458V23.395H17.5444V23.7299Z" fill="#2244C0"/>
<path id="Vector_142" d="M50.111 21.2363H47.6094V26.5537H50.111V21.2363Z" fill="#2244C0"/>
<path id="Vector_143" d="M52.6169 21.2363H50.1152V26.5537H52.6169V21.2363Z" fill="#2244C0"/>
<path id="Vector_144" d="M56.5473 26.5456V26.5539V29.3697H55.1309V29.7005H56.8787V26.5539V26.5456V24.3913H57.6283V24.0605H56.5473V26.5456Z" fill="#2244C0"/>
<path id="Vector_145" d="M55.8805 26.5458V26.554V28.7042H55.1309V29.0391H56.2119V26.554V26.5458V23.7299H57.6283V23.395H55.8805V26.5458Z" fill="#2244C0"/>
<path id="Vector_146" d="M58.7175 21.2449V21.2366V15.9358V15.9275V10.6266V10.6183V8.1333H57.6365V8.46409H58.3861V10.6183V10.6266V15.9275V15.9358V21.2366V21.2449V23.395H57.6365V23.7299H58.7175V21.2449Z" fill="#2244C0"/>
<path id="Vector_147" d="M90.2072 21.2363H87.7056V26.5537H90.2072V21.2363Z" fill="#2244C0"/>
<path id="Vector_148" d="M92.713 21.2363H90.2114V26.5537H92.713V21.2363Z" fill="#2244C0"/>
<path id="Vector_149" d="M96.6394 26.5456V26.5539V29.3697H95.2229V29.7005H96.9707V26.5539V26.5456V24.3913H97.7204V24.0605H96.6394V26.5456Z" fill="#2244C0"/>
<path id="Vector_150" d="M95.9726 26.5458V26.554V28.7042H95.2229V29.0391H96.3039V26.554V26.5458V23.7299H97.7204V23.395H95.9726V26.5458Z" fill="#2244C0"/>
<path id="Vector_151" d="M98.8139 21.2448V21.2365V18.7515H97.7288V19.0823H98.4826V21.2365V21.2448V23.3949H97.7288V23.7298H98.8139V21.2448Z" fill="#2244C0"/>
<path id="Vector_152" d="M5.00748 28.7041H2.50586V29.0349H5.00748V28.7041Z" fill="#2244C0"/>
<path id="Vector_153" d="M5.00748 29.3696H2.50586V29.7004H5.00748V29.3696Z" fill="#2244C0"/>
<path id="Vector_154" d="M17.536 28.7041H15.0344V29.0349H17.536V28.7041Z" fill="#2244C0"/>
<path id="Vector_155" d="M17.536 29.3696H15.0344V29.7004H17.536V29.3696Z" fill="#2244C0"/>
<path id="Vector_156" d="M18.6254 26.5539V26.5456V24.0605H17.5444V24.3913H18.2941V26.5456V26.5539V28.704H17.5444V29.0389H18.6254V26.5539Z" fill="#2244C0"/>
<path id="Vector_157" d="M25.0534 28.7041H22.5518V29.0349H25.0534V28.7041Z" fill="#2244C0"/>
<path id="Vector_158" d="M25.0534 29.3696H22.5518V29.7004H25.0534V29.3696Z" fill="#2244C0"/>
<path id="Vector_159" d="M37.5822 28.7041H35.0806V29.0349H37.5822V28.7041Z" fill="#2244C0"/>
<path id="Vector_160" d="M37.5822 29.3696H35.0806V29.7004H37.5822V29.3696Z" fill="#2244C0"/>
<path id="Vector_161" d="M38.6716 26.554V26.5458V21.2449V21.2366V15.9358V15.9275V10.6266V10.6183V8.1333H37.5864V8.46409H38.3361V10.6183V10.6266V15.9275V15.9358V21.2366V21.2449V26.5458V26.554V28.7041H37.5864V29.0391H38.6716V26.554Z" fill="#2244C0"/>
<path id="Vector_162" d="M45.1037 28.7041H42.6021V29.0349H45.1037V28.7041Z" fill="#2244C0"/>
<path id="Vector_163" d="M45.1037 29.3696H42.6021V29.7004H45.1037V29.3696Z" fill="#2244C0"/>
<path id="Vector_164" d="M47.6093 28.7041H45.1077V29.0349H47.6093V28.7041Z" fill="#2244C0"/>
<path id="Vector_165" d="M47.6093 29.3696H45.1077V29.7004H47.6093V29.3696Z" fill="#2244C0"/>
<path id="Vector_166" d="M50.111 29.3696H47.6094V29.7004H50.111V29.3696Z" fill="#2244C0"/>
<path id="Vector_167" d="M50.111 28.7041H47.6094V29.0349H50.111V28.7041Z" fill="#2244C0"/>
<path id="Vector_168" d="M52.6169 29.3696H50.1152V29.7004H52.6169V29.3696Z" fill="#2244C0"/>
<path id="Vector_169" d="M52.6169 28.7041H50.1152V29.0349H52.6169V28.7041Z" fill="#2244C0"/>
<path id="Vector_170" d="M55.1266 28.7041H52.625V29.0349H55.1266V28.7041Z" fill="#2244C0"/>
<path id="Vector_171" d="M55.1266 29.3696H52.625V29.7004H55.1266V29.3696Z" fill="#2244C0"/>
<path id="Vector_172" d="M65.1498 29.3696H62.6482V29.7004H65.1498V29.3696Z" fill="#2244C0"/>
<path id="Vector_173" d="M65.1498 28.7041H62.6482V29.0349H65.1498V28.7041Z" fill="#2244C0"/>
<path id="Vector_174" d="M77.6784 29.3696H75.1768V29.7004H77.6784V29.3696Z" fill="#2244C0"/>
<path id="Vector_175" d="M77.6784 28.7041H75.1768V29.0349H77.6784V28.7041Z" fill="#2244C0"/>
<path id="Vector_176" d="M78.7678 26.554V26.5458V21.2449V21.2366V15.9358V15.9275V10.6266V10.6183V8.1333H77.6826V8.46409H78.4323V10.6183V10.6266V15.9275V15.9358V21.2366V21.2449V26.5458V26.554V28.7041H77.6826V29.0391H78.7678V26.554Z" fill="#2244C0"/>
<path id="Vector_177" d="M85.1957 29.3696H82.6941V29.7004H85.1957V29.3696Z" fill="#2244C0"/>
<path id="Vector_178" d="M85.1957 28.7041H82.6941V29.0349H85.1957V28.7041Z" fill="#2244C0"/>
<path id="Vector_179" d="M87.7016 29.3696H85.2V29.7004H87.7016V29.3696Z" fill="#2244C0"/>
<path id="Vector_180" d="M87.7016 28.7041H85.2V29.0349H87.7016V28.7041Z" fill="#2244C0"/>
<path id="Vector_181" d="M90.2072 28.7041H87.7056V29.0349H90.2072V28.7041Z" fill="#2244C0"/>
<path id="Vector_182" d="M90.2072 29.3696H87.7056V29.7004H90.2072V29.3696Z" fill="#2244C0"/>
<path id="Vector_183" d="M92.713 29.3696H90.2114V29.7004H92.713V29.3696Z" fill="#2244C0"/>
<path id="Vector_184" d="M92.713 28.7041H90.2114V29.0349H92.713V28.7041Z" fill="#2244C0"/>
<path id="Vector_185" d="M95.2189 28.7041H92.7173V29.0349H95.2189V28.7041Z" fill="#2244C0"/>
<path id="Vector_186" d="M95.2189 29.3696H92.7173V29.7004H95.2189V29.3696Z" fill="#2244C0"/>
<path id="Vector_187" d="M105.242 28.7041H102.74V29.0349H105.242V28.7041Z" fill="#2244C0"/>
<path id="Vector_188" d="M105.242 29.3696H102.74V29.7004H105.242V29.3696Z" fill="#2244C0"/>
<path id="Vector_189" d="M117.771 28.7041H115.269V29.0349H117.771V28.7041Z" fill="#2244C0"/>
<path id="Vector_190" d="M117.771 29.3696H115.269V29.7004H117.771V29.3696Z" fill="#2244C0"/>
<path id="Vector_191" d="M118.856 26.5539V26.5456V21.2448V21.2365V18.7515H117.775V19.0823H118.524V21.2365V21.2448V26.5456V26.5539V28.704H117.775V29.039H118.856V26.5539Z" fill="#2244C0"/>
<path id="Vector_192" d="M125.288 29.3696H122.786V29.7004H125.288V29.3696Z" fill="#2244C0"/>
<path id="Vector_193" d="M125.288 28.7041H122.786V29.0349H125.288V28.7041Z" fill="#2244C0"/>
<path id="Vector_194" d="M137.817 29.3696H135.315V29.7004H137.817V29.3696Z" fill="#2244C0"/>
<path id="Vector_195" d="M137.817 28.7041H135.315V29.0349H137.817V28.7041Z" fill="#2244C0"/>
<path id="Vector_196" d="M139.101 26.554V26.5458V21.2449V21.2366V15.9358V15.9275V10.6266V10.6183V8.1333H138.015V8.46409H138.769V10.6183V10.6266V15.9275V15.9358V21.2366V21.2449V26.5458V26.554V28.7041H138.015V29.0391H139.101V26.554Z" fill="#2244C0"/>
</g>
<defs>
<clipPath id="clip0_172_363">
<rect width="139.767" height="29.7006" fill="white"/>
</clipPath>
</defs>
</svg>
